<?xml version="1.0" encoding="UTF-8" standalone="no"?>
<!-- Created with Inkscape (http://www.inkscape.org/) -->

<svg
   xmlns:dc="http://purl.org/dc/elements/1.1/"
   xmlns:cc="http://creativecommons.org/ns#"
   xmlns:rdf="http://www.w3.org/1999/02/22-rdf-syntax-ns#"
   xmlns:svg="http://www.w3.org/2000/svg"
   xmlns="http://www.w3.org/2000/svg"
   xmlns:sodipodi="http://sodipodi.sourceforge.net/DTD/sodipodi-0.dtd"
   xmlns:inkscape="http://www.inkscape.org/namespaces/inkscape"
   id="svg2"
   version="1.1"
   inkscape:version="0.91 r13725"
   xml:space="preserve"
   width="515.75287"
   height="438.61035"
   viewBox="0 0 515.75287 438.61035"
   sodipodi:docname="logos.svg"><metadata
     id="metadata8"><rdf:RDF><cc:Work
         rdf:about=""><dc:format>image/svg+xml</dc:format><dc:type
           rdf:resource="http://purl.org/dc/dcmitype/StillImage" /><dc:title></dc:title></cc:Work></rdf:RDF></metadata><defs
     id="defs6" /><sodipodi:namedview
     pagecolor="#ffffff"
     bordercolor="#666666"
     borderopacity="1"
     objecttolerance="10"
     gridtolerance="10"
     guidetolerance="10"
     inkscape:pageopacity="0"
     inkscape:pageshadow="2"
     inkscape:window-width="1920"
     inkscape:window-height="1049"
     id="namedview4"
     showgrid="false"
     fit-margin-top="0"
     fit-margin-left="0"
     fit-margin-right="0"
     fit-margin-bottom="0"
     inkscape:zoom="0.5"
     inkscape:cx="-425.75"
     inkscape:cy="208.56489"
     inkscape:window-x="0"
     inkscape:window-y="31"
     inkscape:window-maximized="1"
     inkscape:current-layer="g10"
     inkscape:object-nodes="false"
     inkscape:snap-object-midpoints="false"
     inkscape:snap-center="true"
     borderlayer="true" /><g
     id="g10"
     inkscape:groupmode="layer"
     inkscape:label="ink_ext_XXXXXX"
     transform="matrix(1.25,0,0,-1.25,77.858226,414.81785)"><path
       style="fill:none;fill-rule:evenodd;stroke:none;stroke-width:0.87833905px;stroke-linecap:butt;stroke-linejoin:miter;stroke-opacity:1"
       d="M -61.501477,-18.5881 151.05658,330.99085 349.56121,-15.074744 Z"
       id="path4260"
       inkscape:connector-curvature="0" /><g
       id="g4253"
       transform="translate(832.93454,121.76738)"><path
         sodipodi:nodetypes="ccccc"
         style="fill:#000000"
         d="m -782.37547,-56.778929 -0.0145,181.472479 197.58288,0 -0.56359,-181.472479 z"
         id="path4178"
         inkscape:connector-curvature="0" /><path
         sodipodi:nodetypes="cccccccccccc"
         style="fill:#f8f304"
         d="m -781.14989,-55.606731 49.36034,110.050938 48.70846,-110.050938 z m 101.36125,0 30.4592,58.6031109 26.17168,-58.6031109 z m 30.4592,58.6031109 -50.85109,120.0394501 113.85502,0 z"
         id="path4182"
         inkscape:connector-curvature="0" /><path
         sodipodi:nodetypes="cccc"
         style="fill:#de3d05"
         d="m -731.78955,54.444207 -15.38917,32.34714 46.99819,36.244483 z"
         id="path4180"
         inkscape:connector-curvature="0" /><text
         transform="scale(1,-1)"
         sodipodi:linespacing="125%"
         id="text4200"
         y="122.68865"
         x="-870.12207"
         style="font-style:normal;font-weight:normal;font-size:37.43340302px;line-height:125%;font-family:Sans;letter-spacing:0px;word-spacing:0px;fill:#000000;fill-opacity:1;stroke:none;stroke-width:1px;stroke-linecap:butt;stroke-linejoin:miter;stroke-opacity:1"
         xml:space="preserve"><tspan
           style="font-style:normal;font-variant:normal;font-weight:500;font-stretch:normal;font-family:'Gill Sans MT Pro';-inkscape-font-specification:'Gill Sans MT Pro Medium'"
           y="122.68865"
           x="-870.12207"
           id="tspan4202"
           sodipodi:role="line">Facultad de Matemáticas</tspan></text>
</g><g
       id="g4227"
       transform="translate(154.10878,-268.40185)"><path
         sodipodi:nodetypes="sssssssscscssccsscscccsssscssscssscscsssscccssssssssssscsssscssssccsssssssssssssssscccc"
         style="fill:#0059a8"
         d="m -444.20691,317.15547 c -17.71062,4.20391 -30.2947,12.98097 -37.32825,26.03544 -2.53108,4.69776 -4.52127,11.20366 -4.98607,16.29937 -0.30627,3.35777 -2.39098,65.94638 -2.21208,66.4126 0.23301,0.60721 0.77038,0.33479 1.36497,-0.69197 0.32487,-0.561 10.21941,-23.376 21.98787,-50.7 11.76846,-27.324 21.86393,-50.66967 22.43438,-51.87924 0.57046,-1.2096 1.56146,-2.9916 2.20222,-3.96 0.64076,-0.96843 1.25141,-1.89576 1.35698,-2.06076 0.31894,-0.49846 -1.10244,-0.33788 -4.82002,0.54456 z m 14.19934,-0.30456 c 1.09908,1.52277 2.14629,3.22588 2.88292,4.68861 0.82156,1.63143 5.6749,12.84953 30.86043,71.33139 7.41847,17.226 13.75307,31.779 14.0769,32.34 0.58935,1.021 1.12983,1.29977 1.35951,0.70121 0.18076,-0.47105 -1.90992,-62.90568 -2.22075,-66.31893 -1.01273,-11.12094 -6.66163,-21.90364 -15.4551,-29.50086 -7.3047,-6.31102 -16.72699,-10.76254 -27.93105,-13.1959 -1.48276,-0.32205 -2.98093,-0.58552 -3.32927,-0.58552 -0.61229,0 -0.62039,0.018 -0.24359,0.54 z m -6.90865,2.16396 c -0.51559,0.29481 -1.13315,0.80604 -1.37235,1.13604 -0.23921,0.33 -10.9694,24.98834 -23.84486,54.79634 -12.87546,29.80799 -23.56538,54.49696 -23.75538,54.86437 -0.31896,0.61679 -1.18971,1.45224 -2.57292,2.46859 -0.5274,0.38753 0.16467,0.40976 13.00294,0.41776 l 13.56,0.008 1.25126,-0.71761 c 0.68818,-0.39468 1.49921,-1.08252 1.80228,-1.52854 0.30308,-0.44601 5.78801,-12.81129 12.18876,-27.4784 6.40073,-14.66711 11.74972,-26.66826 11.88664,-26.66921 0.13692,-8e-4 5.42892,11.90347 11.76,26.45428 6.33108,14.55082 11.83507,26.93473 12.23107,27.51982 0.44013,0.65029 1.20525,1.33463 1.96837,1.76058 l 1.24838,0.69679 13.29422,0.14101 c 8.3605,0.0887 13.34685,0.0558 13.43608,-0.0885 0.078,-0.12626 -0.3557,-0.60218 -0.96384,-1.05762 -0.60813,-0.45543 -1.30168,-1.09805 -1.5412,-1.42805 -0.23952,-0.33 -11.01585,-25.09215 -23.9474,-55.02699 -12.93154,-29.93486 -23.74932,-54.76043 -24.03951,-55.16798 -1.12034,-1.57336 -3.83272,-2.10739 -5.59254,-1.10107 z m -10.91986,95.58917 c -7.76637,17.81925 -13.26821,30.13691 -13.96154,31.25749 -2.96603,4.79379 -6.8118,8.22871 -11.98723,10.70664 -10.85537,5.19741 -23.57286,2.9746 -32.16404,-5.62174 -4.01103,-4.01345 -6.73302,-9.13939 -7.77775,-14.64674 -0.48907,-2.57819 -0.48907,-7.95938 0,-10.53757 1.04324,-5.49953 3.75379,-10.60828 7.77775,-14.65927 2.28948,-2.30485 4.09386,-3.61242 7.4354,-5.38815 3.61232,-1.91961 3.12392,-2.39386 -1.50088,-1.45745 -22.3226,4.51983 -38.32442,23.56516 -38.32442,45.61365 0,17.45973 10.09894,33.5431 26.04,41.47079 4.63024,2.30268 8.97918,3.70503 14.41031,4.64674 3.34413,0.57985 11.98013,0.58095 15.34969,0.002 12.72367,-2.18627 23.75937,-8.74714 31.0676,-18.4701 0.96807,-1.28792 1.8085,-2.2933 1.86762,-2.23417 0.0591,0.0591 -0.59505,1.87089 -1.45373,4.02614 -3.43148,8.61293 -5.53077,17.14855 -6.68934,27.19868 -0.41029,3.55911 -0.40695,16.17986 0.006,19.92 2.08412,18.90952 8.87499,36.45476 20.64523,53.34 1.12716,1.617 2.18273,2.94 2.34572,2.94 0.16297,0 1.15029,-1.215 2.19404,-2.7 10.10158,-14.37216 16.73952,-29.72208 19.58959,-45.3 1.27821,-6.9865 1.46836,-9.37289 1.46292,-18.36 -0.005,-7.36149 -0.0719,-8.88957 -0.54542,-12.36 -1.30701,-9.57875 -3.50704,-17.91528 -6.80013,-25.76757 -0.65682,-1.56616 -1.14711,-2.89468 -1.08953,-2.95226 0.0576,-0.0576 0.96749,1.00783 2.02202,2.36758 4.59014,5.91864 10.38843,10.6567 16.97815,13.87367 16.63089,8.11887 36.526,6.27191 51.2105,-4.75411 2.37276,-1.78162 6.41038,-5.67556 8.25274,-7.9591 3.53184,-4.37755 6.35006,-9.53861 8.07144,-14.78134 1.5168,-4.61972 1.98369,-7.4419 2.12208,-12.82687 0.13216,-5.14451 -0.17604,-8.18155 -1.271,-12.52392 -3.83433,-15.20624 -15.64032,-27.70869 -31.0032,-32.83217 -2.97705,-0.99284 -8.78287,-2.27654 -9.33607,-2.06426 -0.71289,0.27357 -0.24948,0.83638 1.29351,1.57092 8.06292,3.83834 13.89816,11.30022 15.81093,20.21838 0.58546,2.7297 0.58546,8.21241 0,10.94212 -3.23402,15.07834 -17.07465,24.76284 -32.14377,22.49146 -8.72767,-1.31552 -16.7872,-7.07886 -20.7032,-14.80479 -0.5884,-1.16086 -24.82012,-56.47355 -25.71466,-58.69773 -0.0663,-0.165 -0.2441,-0.29888 -0.39498,-0.2975 -0.15088,0.002 -6.04211,13.23615 -13.09161,29.41063 z"
         id="path4151"
         inkscape:connector-curvature="0" /><path
         sodipodi:nodetypes="ccsssscssscssscscsssscc"
         style="fill:#00aa4d"
         d="m -436.91622,319.01487 c -0.51559,0.29481 -1.13315,0.80604 -1.37235,1.13604 -0.23921,0.33 -10.9694,24.98834 -23.84486,54.79634 -12.87546,29.80799 -23.56538,54.49696 -23.75538,54.86437 -0.31896,0.61679 -1.18971,1.45224 -2.57292,2.46859 -0.5274,0.38753 0.16467,0.40976 13.00294,0.41776 l 13.56,0.008 1.25126,-0.71761 c 0.68818,-0.39468 1.49921,-1.08252 1.80228,-1.52854 0.30308,-0.44601 5.78801,-12.81129 12.18876,-27.4784 6.40073,-14.66711 11.74972,-26.66826 11.88664,-26.66921 0.13692,-8e-4 5.42892,11.90347 11.76,26.45428 6.33108,14.55082 11.83507,26.93473 12.23107,27.51982 0.44013,0.65029 1.20525,1.33463 1.96837,1.76058 l 1.24838,0.69679 13.29422,0.14101 c 8.3605,0.0887 13.34685,0.0558 13.43608,-0.0885 0.078,-0.12626 -0.3557,-0.60218 -0.96384,-1.05762 -0.60813,-0.45543 -1.30168,-1.09805 -1.5412,-1.42805 -0.23952,-0.33 -11.01585,-25.09215 -23.9474,-55.02699 -12.93154,-29.93486 -23.74932,-54.76043 -24.03951,-55.16798 -1.12034,-1.57336 -3.83272,-2.10739 -5.59254,-1.10107 z"
         id="path4149"
         inkscape:connector-curvature="0" /><text
         transform="scale(1,-1)"
         sodipodi:linespacing="125%"
         id="text4200-9"
         y="-265.16162"
         x="-624.96484"
         style="font-style:normal;font-weight:normal;font-size:37.43340302px;line-height:125%;font-family:Sans;letter-spacing:0px;word-spacing:0px;fill:#000000;fill-opacity:1;stroke:none;stroke-width:1px;stroke-linecap:butt;stroke-linejoin:miter;stroke-opacity:1"
         xml:space="preserve"><tspan
           style="font-style:normal;font-variant:normal;font-weight:500;font-stretch:normal;font-family:'Gill Sans MT Pro';-inkscape-font-specification:'Gill Sans MT Pro Medium'"
           y="-265.16162"
           x="-624.96484"
           id="tspan4202-5"
           sodipodi:role="line">Universidad Veracruzana</tspan></text>
</g></g></svg>